<svg xmlns="http://www.w3.org/2000/svg" xmlns:xlink="http://www.w3.org/1999/xlink" viewBox="0 0 749.93 500"><defs><style>.cls-1{isolation:isolate;}.cls-2{fill:url(#radial-gradient);}.cls-3{fill:#10136b;opacity:0.21;}.cls-4{fill:#0d0d4f;opacity:0.64;}.cls-5{opacity:0.99;}.cls-5,.cls-7{mix-blend-mode:color-dodge;}.cls-6{fill:#312c2d;opacity:0.11;}.cls-8{fill:url(#Degradado_sin_nombre_4);}.cls-9{fill:url(#Degradado_sin_nombre_4-2);}.cls-10{fill:url(#Degradado_sin_nombre_4-3);}.cls-11{fill:url(#Degradado_sin_nombre_4-4);}.cls-12{fill:url(#Degradado_sin_nombre_4-5);}.cls-13{fill:url(#Degradado_sin_nombre_4-6);}.cls-14{fill:url(#Degradado_sin_nombre_4-7);}.cls-15{fill:url(#Degradado_sin_nombre_4-8);}.cls-16{fill:url(#Degradado_sin_nombre_4-9);}.cls-17{fill:url(#Degradado_sin_nombre_4-10);}.cls-18{fill:url(#Degradado_sin_nombre_4-11);}.cls-19{fill:url(#Degradado_sin_nombre_4-12);}.cls-20{fill:url(#Degradado_sin_nombre_4-13);}.cls-21{fill:url(#Degradado_sin_nombre_4-14);}.cls-22{fill:url(#Degradado_sin_nombre_4-15);}.cls-23{fill:url(#Degradado_sin_nombre_4-16);}.cls-24{fill:url(#Degradado_sin_nombre_4-17);}.cls-25{fill:url(#Degradado_sin_nombre_4-18);}.cls-26{fill:url(#Degradado_sin_nombre_4-19);}.cls-27{fill:url(#Degradado_sin_nombre_4-20);}.cls-28{fill:url(#Degradado_sin_nombre_4-21);}.cls-29{fill:url(#Degradado_sin_nombre_4-22);}.cls-30{fill:url(#Degradado_sin_nombre_4-23);}.cls-31{fill:url(#Degradado_sin_nombre_4-24);}.cls-32{fill:url(#Degradado_sin_nombre_4-25);}.cls-33{fill:url(#Degradado_sin_nombre_4-26);}.cls-34{fill:url(#Degradado_sin_nombre_4-27);}.cls-35{fill:url(#Degradado_sin_nombre_4-28);}.cls-36{fill:url(#Degradado_sin_nombre_4-29);}.cls-37{fill:url(#Degradado_sin_nombre_4-30);}.cls-38{fill:url(#Degradado_sin_nombre_4-31);}.cls-39{fill:url(#Degradado_sin_nombre_4-32);}.cls-40{fill:url(#Degradado_sin_nombre_4-33);}.cls-41{fill:url(#Degradado_sin_nombre_4-34);}.cls-42{fill:url(#Degradado_sin_nombre_4-35);}.cls-43{fill:url(#Degradado_sin_nombre_4-36);}.cls-44{fill:url(#Degradado_sin_nombre_4-37);}.cls-45{fill:url(#Degradado_sin_nombre_4-38);}.cls-46{fill:url(#Degradado_sin_nombre_4-39);}.cls-47{fill:url(#Degradado_sin_nombre_4-40);}.cls-48{fill:url(#Degradado_sin_nombre_4-41);}.cls-49{fill:url(#Degradado_sin_nombre_4-42);}.cls-50{fill:url(#Degradado_sin_nombre_4-43);}.cls-51{fill:url(#Degradado_sin_nombre_4-44);}.cls-52{fill:url(#Degradado_sin_nombre_4-45);}.cls-53{fill:url(#Degradado_sin_nombre_4-46);}.cls-54{fill:url(#Degradado_sin_nombre_4-47);}.cls-55{fill:url(#Degradado_sin_nombre_4-48);}.cls-56{fill:url(#Degradado_sin_nombre_4-49);}.cls-57{fill:url(#Degradado_sin_nombre_4-50);}.cls-58{fill:url(#Degradado_sin_nombre_4-51);}.cls-59{fill:url(#Degradado_sin_nombre_4-52);}.cls-60{fill:url(#Degradado_sin_nombre_4-53);}.cls-61{fill:url(#Degradado_sin_nombre_4-54);}.cls-62{fill:url(#Degradado_sin_nombre_4-55);}.cls-63{fill:url(#Degradado_sin_nombre_4-56);}.cls-64{fill:url(#Degradado_sin_nombre_4-57);}.cls-65{fill:url(#Degradado_sin_nombre_4-58);}.cls-66{fill:url(#Degradado_sin_nombre_4-59);}.cls-67{fill:url(#Degradado_sin_nombre_4-60);}.cls-68{fill:url(#Degradado_sin_nombre_4-61);}.cls-69{fill:url(#Degradado_sin_nombre_4-62);}.cls-70{fill:url(#Degradado_sin_nombre_4-63);}.cls-71{fill:url(#Degradado_sin_nombre_4-64);}.cls-72{fill:url(#Degradado_sin_nombre_4-65);}.cls-73{fill:url(#Degradado_sin_nombre_4-66);}.cls-74{fill:url(#Degradado_sin_nombre_4-67);}.cls-75{fill:url(#Degradado_sin_nombre_4-68);}.cls-76{fill:url(#Degradado_sin_nombre_4-69);}.cls-77{fill:url(#Degradado_sin_nombre_8);}.cls-78{fill:url(#Degradado_sin_nombre_6);}.cls-79{fill:url(#Degradado_sin_nombre_7);}.cls-80{fill:url(#Degradado_sin_nombre_6-2);}</style><radialGradient id="radial-gradient" cx="375.23" cy="249.8" r="318.43" gradientUnits="userSpaceOnUse"><stop offset="0" stop-color="#0b0a65"/><stop offset="1" stop-color="#040431"/></radialGradient><radialGradient id="Degradado_sin_nombre_4" cx="-3047.32" cy="1663.61" r="4.46" gradientTransform="matrix(0, -1, -1, 0, 1996.21, -2788.54)" gradientUnits="userSpaceOnUse"><stop offset="0" stop-color="#ff0"/><stop offset="0.07" stop-color="#ff0"/><stop offset="0.12" stop-color="#e0e000"/><stop offset="0.21" stop-color="#acac00"/><stop offset="0.31" stop-color="#7e7e00"/><stop offset="0.41" stop-color="#575700"/><stop offset="0.52" stop-color="#383800"/><stop offset="0.62" stop-color="#1f1f00"/><stop offset="0.74" stop-color="#0e0e00"/><stop offset="0.86" stop-color="#030300"/><stop offset="1"/></radialGradient><radialGradient id="Degradado_sin_nombre_4-2" cx="-3026.55" cy="1739.21" r="10.74" xlink:href="#Degradado_sin_nombre_4"/><radialGradient id="Degradado_sin_nombre_4-3" cx="-2891.27" cy="1618.75" r="10.74" xlink:href="#Degradado_sin_nombre_4"/><radialGradient id="Degradado_sin_nombre_4-4" cx="-3046.99" cy="1778.77" r="7.54" xlink:href="#Degradado_sin_nombre_4"/><radialGradient id="Degradado_sin_nombre_4-5" cx="-3005.31" cy="1738.37" r="8.29" xlink:href="#Degradado_sin_nombre_4"/><radialGradient id="Degradado_sin_nombre_4-6" cx="-3025.4" cy="1754.19" r="3.95" xlink:href="#Degradado_sin_nombre_4"/><radialGradient id="Degradado_sin_nombre_4-7" cx="-3104.81" cy="1789.35" r="6.61" xlink:href="#Degradado_sin_nombre_4"/><radialGradient id="Degradado_sin_nombre_4-8" cx="-3121.33" cy="1707.17" r="12.06" xlink:href="#Degradado_sin_nombre_4"/><radialGradient id="Degradado_sin_nombre_4-9" cx="-3012.99" cy="1677.93" r="5.95" xlink:href="#Degradado_sin_nombre_4"/><radialGradient id="Degradado_sin_nombre_4-10" cx="-3042.83" cy="1614.69" r="6.27" xlink:href="#Degradado_sin_nombre_4"/><radialGradient id="Degradado_sin_nombre_4-11" cx="-2992.03" cy="1562.3" r="4.17" xlink:href="#Degradado_sin_nombre_4"/><radialGradient id="Degradado_sin_nombre_4-12" cx="-3005" cy="1533.28" r="8.33" xlink:href="#Degradado_sin_nombre_4"/><radialGradient id="Degradado_sin_nombre_4-13" cx="-3017.56" cy="1496.04" r="5.8" xlink:href="#Degradado_sin_nombre_4"/><radialGradient id="Degradado_sin_nombre_4-14" cx="-3078.85" cy="1645.89" r="5.8" xlink:href="#Degradado_sin_nombre_4"/><radialGradient id="Degradado_sin_nombre_4-15" cx="-2947.58" cy="1547.94" r="4.79" xlink:href="#Degradado_sin_nombre_4"/><radialGradient id="Degradado_sin_nombre_4-16" cx="-2890.53" cy="1524.7" r="6.81" xlink:href="#Degradado_sin_nombre_4"/><radialGradient id="Degradado_sin_nombre_4-17" cx="-2818.57" cy="1484.85" r="5.35" xlink:href="#Degradado_sin_nombre_4"/><radialGradient id="Degradado_sin_nombre_4-18" cx="-2876.95" cy="1552.79" r="8.37" xlink:href="#Degradado_sin_nombre_4"/><radialGradient id="Degradado_sin_nombre_4-19" cx="-2818.28" cy="1608.17" r="10.57" xlink:href="#Degradado_sin_nombre_4"/><radialGradient id="Degradado_sin_nombre_4-20" cx="-2915.39" cy="1688.39" r="10.57" xlink:href="#Degradado_sin_nombre_4"/><radialGradient id="Degradado_sin_nombre_4-21" cx="-2914.56" cy="1673.8" r="6.49" xlink:href="#Degradado_sin_nombre_4"/><radialGradient id="Degradado_sin_nombre_4-22" cx="-2815.36" cy="1733.03" r="12.32" xlink:href="#Degradado_sin_nombre_4"/><radialGradient id="Degradado_sin_nombre_4-23" cx="-2918.85" cy="1758.14" r="12.32" xlink:href="#Degradado_sin_nombre_4"/><radialGradient id="Degradado_sin_nombre_4-24" cx="-2982.77" cy="1803.6" r="12.32" xlink:href="#Degradado_sin_nombre_4"/><radialGradient id="Degradado_sin_nombre_4-25" cx="-2853.03" cy="1780.29" r="5.27" xlink:href="#Degradado_sin_nombre_4"/><radialGradient id="Degradado_sin_nombre_4-26" cx="-2908.73" cy="1822.14" r="4.51" xlink:href="#Degradado_sin_nombre_4"/><radialGradient id="Degradado_sin_nombre_4-27" cx="-2905.18" cy="1870.42" r="7.33" xlink:href="#Degradado_sin_nombre_4"/><radialGradient id="Degradado_sin_nombre_4-28" cx="-2877.9" cy="1908.29" r="6.69" xlink:href="#Degradado_sin_nombre_4"/><radialGradient id="Degradado_sin_nombre_4-29" cx="-2935.66" cy="1901.88" r="11.63" xlink:href="#Degradado_sin_nombre_4"/><radialGradient id="Degradado_sin_nombre_4-30" cx="-2952.35" cy="1909.29" r="6.54" xlink:href="#Degradado_sin_nombre_4"/><radialGradient id="Degradado_sin_nombre_4-31" cx="-2988.71" cy="1895.86" r="5.01" xlink:href="#Degradado_sin_nombre_4"/><radialGradient id="Degradado_sin_nombre_4-32" cx="-3006.29" cy="1890.67" r="6.01" xlink:href="#Degradado_sin_nombre_4"/><radialGradient id="Degradado_sin_nombre_4-33" cx="-3031" cy="1908.86" r="12.87" xlink:href="#Degradado_sin_nombre_4"/><radialGradient id="Degradado_sin_nombre_4-34" cx="-3057.61" cy="1871.96" r="4.25" xlink:href="#Degradado_sin_nombre_4"/><radialGradient id="Degradado_sin_nombre_4-35" cx="-3101.07" cy="1932.52" r="6.36" xlink:href="#Degradado_sin_nombre_4"/><radialGradient id="Degradado_sin_nombre_4-36" cx="-3176.2" cy="1981.92" r="7.95" xlink:href="#Degradado_sin_nombre_4"/><radialGradient id="Degradado_sin_nombre_4-37" cx="-3237.48" cy="1956.79" r="9.26" xlink:href="#Degradado_sin_nombre_4"/><radialGradient id="Degradado_sin_nombre_4-38" cx="-3196.39" cy="1864.36" r="10.2" xlink:href="#Degradado_sin_nombre_4"/><radialGradient id="Degradado_sin_nombre_4-39" cx="-3160.06" cy="1830.16" r="9.04" xlink:href="#Degradado_sin_nombre_4"/><radialGradient id="Degradado_sin_nombre_4-40" cx="-3177.88" cy="1790.64" r="10.17" xlink:href="#Degradado_sin_nombre_4"/><radialGradient id="Degradado_sin_nombre_4-41" cx="-3222.73" cy="1709.58" r="5.95" xlink:href="#Degradado_sin_nombre_4"/><radialGradient id="Degradado_sin_nombre_4-42" cx="-3258.05" cy="1626.78" r="10.52" xlink:href="#Degradado_sin_nombre_4"/><radialGradient id="Degradado_sin_nombre_4-43" cx="-3278.04" cy="1572.87" r="10.49" xlink:href="#Degradado_sin_nombre_4"/><radialGradient id="Degradado_sin_nombre_4-44" cx="-3218.17" cy="1518.43" r="10.52" xlink:href="#Degradado_sin_nombre_4"/><radialGradient id="Degradado_sin_nombre_4-45" cx="-3271.67" cy="1475.75" r="6.88" xlink:href="#Degradado_sin_nombre_4"/><radialGradient id="Degradado_sin_nombre_4-46" cx="-3190.38" cy="1423.02" r="10.68" gradientTransform="matrix(1, -0.01, -0.01, -1, 3777.61, 1792.99)" xlink:href="#Degradado_sin_nombre_4"/><radialGradient id="Degradado_sin_nombre_4-47" cx="-3170.89" cy="1484.98" r="10.68" gradientTransform="matrix(1, -0.01, -0.01, -1, 3701.4, 1825.48)" xlink:href="#Degradado_sin_nombre_4"/><radialGradient id="Degradado_sin_nombre_4-48" cx="-3212.59" cy="1359.64" r="4.8" xlink:href="#Degradado_sin_nombre_4"/><radialGradient id="Degradado_sin_nombre_4-49" cx="-3216.21" cy="1291.98" r="12.84" xlink:href="#Degradado_sin_nombre_4"/><radialGradient id="Degradado_sin_nombre_4-50" cx="-3085.94" cy="1669.92" r="12.84" xlink:href="#Degradado_sin_nombre_4"/><radialGradient id="Degradado_sin_nombre_4-51" cx="-3142.8" cy="1298.88" r="7.67" xlink:href="#Degradado_sin_nombre_4"/><radialGradient id="Degradado_sin_nombre_4-52" cx="-3105.83" cy="1503.57" r="7.67" xlink:href="#Degradado_sin_nombre_4"/><radialGradient id="Degradado_sin_nombre_4-53" cx="-3105.83" cy="1268.12" r="5.53" xlink:href="#Degradado_sin_nombre_4"/><radialGradient id="Degradado_sin_nombre_4-54" cx="-3018.72" cy="1353.99" r="11.03" gradientTransform="matrix(0.92, -0.38, -0.38, -0.92, 3949.03, 335.07)" xlink:href="#Degradado_sin_nombre_4"/><radialGradient id="Degradado_sin_nombre_4-55" cx="-2968.32" cy="1359.34" r="13.12" gradientTransform="matrix(0.92, -0.39, -0.39, -0.92, 3899.82, 288.83)" xlink:href="#Degradado_sin_nombre_4"/><radialGradient id="Degradado_sin_nombre_4-56" cx="-3128.09" cy="1583.98" r="13.12" gradientTransform="matrix(0.92, -0.39, -0.39, -0.92, 3909.25, 594.22)" xlink:href="#Degradado_sin_nombre_4"/><radialGradient id="Degradado_sin_nombre_4-57" cx="-3080.6" cy="1516.19" r="13.12" gradientTransform="matrix(0.95, -0.31, -0.31, -0.95, 3881.31, 761.28)" xlink:href="#Degradado_sin_nombre_4"/><radialGradient id="Degradado_sin_nombre_4-58" cx="-2955.17" cy="1253.74" r="4.3" xlink:href="#Degradado_sin_nombre_4"/><radialGradient id="Degradado_sin_nombre_4-59" cx="-2891.46" cy="1332.43" r="4.77" xlink:href="#Degradado_sin_nombre_4"/><radialGradient id="Degradado_sin_nombre_4-60" cx="-2796.67" cy="1263.38" r="6" xlink:href="#Degradado_sin_nombre_4"/><radialGradient id="Degradado_sin_nombre_4-61" cx="-2816.75" cy="1415.23" r="5.27" xlink:href="#Degradado_sin_nombre_4"/><radialGradient id="Degradado_sin_nombre_4-62" cx="-2819.98" cy="1897.4" r="3.89" xlink:href="#Degradado_sin_nombre_4"/><radialGradient id="Degradado_sin_nombre_4-63" cx="-2883.23" cy="1987.26" r="6.5" xlink:href="#Degradado_sin_nombre_4"/><radialGradient id="Degradado_sin_nombre_4-64" cx="-2953.75" cy="1924.08" r="9.92" xlink:href="#Degradado_sin_nombre_4"/><radialGradient id="Degradado_sin_nombre_4-65" cx="-3027.71" cy="1928.79" r="5.51" xlink:href="#Degradado_sin_nombre_4"/><radialGradient id="Degradado_sin_nombre_4-66" cx="-3098.56" cy="1981.82" r="8.04" xlink:href="#Degradado_sin_nombre_4"/><radialGradient id="Degradado_sin_nombre_4-67" cx="-3131.52" cy="1892.75" r="5.11" xlink:href="#Degradado_sin_nombre_4"/><radialGradient id="Degradado_sin_nombre_4-68" cx="-3202.62" cy="1983.96" r="12.25" xlink:href="#Degradado_sin_nombre_4"/><radialGradient id="Degradado_sin_nombre_4-69" cx="-3251.23" cy="1982.31" r="9.52" xlink:href="#Degradado_sin_nombre_4"/><linearGradient id="Degradado_sin_nombre_8" x1="447.91" y1="544.01" x2="841.41" y2="226.55" gradientUnits="userSpaceOnUse"><stop offset="0" stop-color="#000c54"/><stop offset="0.15" stop-color="#0d1159"/><stop offset="0.44" stop-color="#311d65"/><stop offset="0.82" stop-color="#6a3179"/><stop offset="1" stop-color="#873b83"/></linearGradient><linearGradient id="Degradado_sin_nombre_6" x1="747.57" y1="414.26" x2="489.41" y2="786.01" gradientTransform="matrix(-0.93, 0.36, -0.36, -0.93, 1488.69, 681.88)" gradientUnits="userSpaceOnUse"><stop offset="0" stop-color="#60308b"/><stop offset="1" stop-color="#a949a3"/></linearGradient><linearGradient id="Degradado_sin_nombre_7" x1="16.25" y1="11.94" x2="293.34" y2="236.31" gradientUnits="userSpaceOnUse"><stop offset="0" stop-color="#000c54"/><stop offset="0.13" stop-color="#0d115a"/><stop offset="0.36" stop-color="#311e6b"/><stop offset="0.68" stop-color="#6a3285"/><stop offset="1" stop-color="#a949a3"/></linearGradient><linearGradient id="Degradado_sin_nombre_6-2" x1="-53.62" y1="-8.69" x2="166.2" y2="112.96" gradientTransform="matrix(1, 0, 0, 1, 0, 0)" xlink:href="#Degradado_sin_nombre_6"/></defs><title>background</title><g class="cls-1"><g id="Layer_2" data-name="Layer 2"><g id="Layer_1-2" data-name="Layer 1"><rect class="cls-2" x="0.54" width="749.39" height="499.59"/><path class="cls-3" d="M643.68,253.25c-54.95-27.48-88.93-14.74-88.93-14.74S495.55,266.24,449.84,222s-109.41-55.7-109.41-55.7-46.46-5.75-82.18,16.24-150.63-13.24-150.63-13.24S59.23,155.27.54,182.16V433.75c34.28-1.48,104.28-11.89,159-68.09,75.43-77.44,113.9-92.43,177.85-64s96.92-4.5,96.92-4.5,63.45-37.6,81.94,15.67,65.94,102.74,65.94,102.74,43,53.95,122.9,36.47c20.29-4.44,34.65-4.4,44.8-1.88V242.38C723.56,255.48,679.49,271.15,643.68,253.25Z"/><path class="cls-3" d="M293.44,55.42s23,6,30.64,20,24.65,38.3,63.95,27S482.28,130,482.28,130s88.93,68.2,165.87,30.48c45.91-22.51,81-52.31,101.78-72.69V0H645.08a301.37,301.37,0,0,0-79.86,42.1c-89.43,65.95-140.89,23-140.89,23s-13.49-17-55.45-6.49C339.4,66,315.6,25,304,0H221.91a61.76,61.76,0,0,1,5.91,10.46C242.81,44.43,293.44,55.42,293.44,55.42Z"/><path class="cls-3" d="M432.83,470.07c-25-35.6-67.95-37-102.42-23.48S261,442.26,261,442.26c-100.59-40-123.9,18.65-123.9,18.65s-10.66,19.32-43.3,19.32c-16.74,0-32.06,9.81-43,19.36H469.22A83.22,83.22,0,0,1,432.83,470.07Z"/><path class="cls-4" d="M383.37,472.07c-27.48-23.48-59.46,0-59.46,0s-24.48,17-79.43,9.49c-28.64-3.9-43.71,6.85-51.57,18H407.19C402.61,493.27,397.49,484.14,383.37,472.07Z"/><path class="cls-4" d="M158.91,317.7s12.66-18,12.66-46-34.64-49.29-34.64-49.29S78,182.79.54,220.94V387.82C29.89,385.7,119.65,374.65,158.91,317.7Z"/><path class="cls-4" d="M622.53,282.73c-93.25-16-59.95,52.62-59.95,52.62,49.29,86.59,91.93,87.93,139.22,76.6,24.34-5.82,39.31-4.86,48.13-2.55V273.24C731.28,281.43,689.15,294.14,622.53,282.73Z"/><path class="cls-4" d="M597.36,75.83s-39.3,39.3,22,43.29c45.65,3,103.85-33.34,130.59-52.07V15.76C650,14.85,597.36,75.83,597.36,75.83Z"/><g class="cls-5"><path class="cls-6" d="M.54,82.59q11.61-6.12,23.18-12.27Q58,53.57,91.15,35.76,125.67,17.13,161.85,0H32.9Q16.67,9.38.54,18.83Z"/><path class="cls-6" d="M581.19,378.14q-35.51,15.11-69.94,31.37L449.07,440.2Q392,469.68,335.39,499.59H456.92q9.84-5.56,19.6-11.21a21.62,21.62,0,0,0,5.17,4.39A22,22,0,0,0,492.78,495c-2.33,1.49-4.59,3-6.83,4.55H640.07c16.77-20.22,37.11-38.8,58.34-57q15.51-12.6,31.28-25.08,8.49-6.78,17-13.54l3.24-1.17v-152c-56.9,41-111,83.86-166.56,125.7Z"/><path class="cls-6" d="M749.93,467l-8.57,4.73q-32.22,13.17-62.82,27.9h69l2.39-1Z"/><path class="cls-6" d="M197.19,324.68l-.2.18-10.56,5.52q-77,42.14-151.29,86.41c-7.09,4.14-1.76,13.42,3.47,16.82q8.8,4.83,19.78,1.7A184.89,184.89,0,0,0,90,427.16L158,396.39q88.58-36.5,181.91-67.2l12.52-4.56Q323.93,348.87,296,373.4c-36.6,17.58-74.26,34.2-111.32,51.29q-38.65,18-74.8,38.33c-21.06,11.29-39.79,23.69-58.16,36.57H319.92q15.82-10.08,30.83-20.82C403,445.27,455.3,412,506.27,377.57c63.66-42.95,122.06-89.4,177.49-137.23q33.18-.53,66.17-3.44V207.67Q736.72,209,723.43,210c8.86-4.86,17.66-9.77,26.5-14.65V64.14c-3.47,1-6.92,2.13-10.4,3.16l10.4-4.73V0H736.09q-35.55,23.12-71,46.33c-.89.28-1.79.54-2.67.83-24.06,7.08-47.72,15.61-70.24,24.67-12.08,4.86-23.76,10-35.27,15.31q8-12,15.77-24,21-31.64,42.4-63.14H537.57q-8.75,14.52-17.44,29-23.88,40.43-46.58,81.17A266.47,266.47,0,0,1,456,138.8c-11.13,6.52-22.05,13.18-32.79,19.88l-7.47,5.09c-3.39,2.79-6.82,5.56-10.23,8.34q-43.1,16.83-85.65,34.29a526.76,526.76,0,0,1-103,42.47q-22.51,8.07-44.32,16.95,4.16-5.43,8.3-10.88,18.64-19.53,37.33-39.07l47.7-39.53q9.6-7.28,19.16-14.56,30-18.93,60-37.9,62.14-44.16,123.84-88.61A489,489,0,0,1,507.85,0H202Q184.9,10.13,167.82,20.36,107.13,57.85,48.42,96.73q-24,15.43-47.88,30.93v61.4q5.3-4.25,10.59-8.45Q37.05,161.68,64.82,144l27.3-16.33q41-23.58,82.91-46.42,52.47-27.78,100.47-59c-11.14,15-22.84,29.86-36.64,44-2,1.77-3.92,3.55-5.92,5.31Q203.8,91.26,174.2,110.71c-50,33.26-102,65.1-155.46,95.87q-9.1,3.82-18.2,7.69v60.42c3.57-2,7.17-4.05,10.74-6.09q53.41-30.53,105.2-62.34c34.13-20.58,67.17-41.93,99.67-63.66q6-3.15,11.91-6.36c22.73-12.29,43.32-26.68,63.39-40.87,4-2.87,7.9-5.81,11.74-8.78q9.51-4.17,18.92-8.41c-25.37,23.6-50.58,47.27-76.24,70.74l-5,4.32q-38,24.13-75.82,48.39-35.46,22.8-69.52,46.56C71.82,264.43,49.37,281.47,27.74,299q-11.16,5.25-22.39,10.45l-3.92,6a9.76,9.76,0,0,0,1.31,4.27l-2.2,1.86V408q86.12-33.15,168-71Q182.88,330.85,197.19,324.68ZM660.32,112.36q44.08-15.23,87.87-30.82l.81-.2-8.18,10.09Q686,111.57,633.27,134.11,646.5,123.07,660.32,112.36Zm-68.53,58.45,2-1.82q44.75-12,89.14-24.59-9.24,8.08-18.5,16.16c-30.71,15.17-61.91,29.88-93,44.62q-17.77,8.41-35.87,16.52c6.06-5.46,12.16-10.9,18.22-16.35Zm-40.92-12.33c-2.53,2.21-5.08,4.41-7.59,6.64-4.14,3.5-8.31,7-12.47,10.49q-13.74,4-27.15,8.52Q527.49,171.5,550.87,158.48Zm-64.7,116.77q-12.35,6.48-24.7,12.95l2.8-2.52c1.34-1.19,2.66-2.39,4-3.59Q477.25,278.69,486.17,275.25Zm-137.58,5.81q15.14-7.32,30.47-14.47,46-19.66,91.11-40.16-27.63,23-55.34,46-39.06,15.63-78.33,31l-35.24,12.93Q325,298.77,348.59,281.06ZM24.36,365.8c.52-.59,1-1.18,1.53-1.76,9.65-11.33,20.33-22.26,31.38-33,2.23.1,4.46.17,6.71.22a334.58,334.58,0,0,0,50.66-.64L165.55,314q16.55-8.11,33.2-16.09c23.67-11.42,47-23.19,70.67-34.6q10.95-4,21.13-8.89,13.14-6.37,26.44-12.58c-15.23,11.42-30.79,22.66-46.53,33.8q-17,8.61-32.33,18.36A1407.71,1407.71,0,0,1,42.57,359.75Q33.38,362.67,24.36,365.8Z"/><path class="cls-6" d="M20.36,5.08,33.16,0H.54V19.49Q10.4,12.25,20.36,5.08Z"/><path class="cls-6" d="M37.61,359.77l34-8.42-9.85.64a110.07,110.07,0,0,1,27.45,0c-.32,1.84.4,3.8,2.17,5.86q-6.1,5.43-12.06,10.91a566.26,566.26,0,0,0-41.82,40.68A350.26,350.26,0,0,0,4.14,451.27c-6.39,8.69,11.35,12.93,20,12.06L45.85,459q30-7.65,58.33-17.8,87.45-35.42,171.3-74.55l9.88-4.64c-4.22,3.42-8.39,6.88-12.45,10.4a7.72,7.72,0,0,0-1.85,5.4Q202,412,137.37,449.87q-10.77,3.81-9.7,11.74,3.09,7.71,15.15,8.76a295.82,295.82,0,0,0,47.57-2.91,281.86,281.86,0,0,0,46.12-8.36q38.16-15.42,76.29-30.86a528.59,528.59,0,0,0,88.56-31l-9.25,8c-4.45,2.2-8.86,4.44-13.32,6.63-37.19,18.3-76,35.14-114.07,52.62Q229.05,481,195.6,499.59H749.93V0H722.59c-8.18,5.58-16.48,11.08-25.11,16.38-4,2.27-7.92,4.61-11.86,6.93L701,0h-620C71.53,7.15,62.33,14.46,53.36,21.88Q27.11,34.45.54,46.7V213.41Q63.65,184,122.64,150.86l66.27-37.58q12.66-7.29,25.38-14.53l-13.4,12.67q-38.61,28.2-80.6,54.14C85.44,187.9,51.4,210.37,18.37,233.93c-6.07,4.48-12,9-17.83,13.64V371.71q7.31-1.09,14.54-2.45ZM329,275l30.79-48,32.79-40q30.34-33.47,64.89-65,24-22.6,49.42-44.5c6.29-5.44,12.75-10.78,19.31-16.06q5.74-3.1,11.45-6.26,6-3.35,11.78-6.81c-11.94,25.86-23.18,51.85-33.93,77.93q-6.34,3.35-12.74,6.63a666.9,666.9,0,0,0-97,47.49q-30.36,17.94-19.62,50.2l-25,37.24q-12.65,5.55-25.37,11l-9.51,2.76C327.22,279.43,328.13,277.22,329,275ZM168.45,382.08q3.7-3.93,7.49-7.82c2.86.25,5.73.45,8.59.67Zm-12.31-90.43q43-25,84.92-50.72,29.06-17.55,57.24-35.73l-7.41,6Q257.2,235.44,222.45,259c-28.81,19.81-56.77,40-84.24,60.67l17.69-27.76Zm-16.28-76.23q-4.47,7-9,14-14.5,8.53-29.19,16.94Q120.52,230.69,139.86,215.42Z"/><path class="cls-6" d="M100.38,247.07l-.12.07c1-.92,2-1.84,3.1-2.75Z"/><path class="cls-6" d="M62.67,24.8Q32,34.94.54,43.64V93.16L72.65,58.34q17.86-9.23,35.28-18.8,23-10.18,45.7-20.63l16.75-6.17Q185.67,6.86,200,0H111.39Q92.67,9.66,73.83,19.21C70.14,21.1,66.4,23,62.67,24.8Z"/><path class="cls-6" d="M3.13,36.75Q52.26,18.17,101.67,0H.54V38.29Z"/><path class="cls-6" d="M640.83,495.34c-3.72,1.4-7.42,2.83-11.13,4.25H749.93V419.24Q703.75,455,655.76,489.72Z"/><path class="cls-6" d="M5.27,484.51c-1.63,1.68-3.19,3.38-4.73,5.08v10H129.15q43.64-23.41,90.3-43.67-41.46,21.4-81.88,43.67h98.15q82.34-32.31,169.15-58.81c-1.38,1.13-2.78,2.26-4.16,3.4q-6.87,5.65-13.67,11.35c-29.49,14.78-59.32,29.25-89.88,43.09l-2.2,1H478.73Q509,478.08,540,457q-17.76,14.24-36.24,28.09L481,499.59h83.8c4.63-3.25,9.16-6.44,13.55-9.5,60.45-42.16,116.26-87,169.42-133.24h2.21v-122q-22.65,7.69-45.33,15.34a299.55,299.55,0,0,1,45.33-37.54V144.89q-16,10.61-32,21.21L690,175.88q-28,9.84-55.17,20.67,10.3-15.68,21.32-31.14,47.7-70.23,93.79-141V0h-72q-16.12,9.15-32.79,17.87,6.95-8.78,13-17.87H461.63Q451,6.29,440.11,12.47l-93.46,26q-27,9.38-54.37,18.21,35.82-19.35,71.88-38.51Q381.26,9.11,398.32,0H303.85Q271,14,237.3,27.26,160.05,52.84,83,78.67,41.47,93.63.54,109.29v30.44C48.3,118.49,98.47,99.57,147.71,80q43.75-16.65,88.57-31.91Q188.7,76.55,140.61,104.6,113.17,120.1,85,135l-15.49,6.69Q35.8,156.49.54,169.58v43c19.58-9.8,39-19.8,58-30.15q13.54-7.15,27.07-14.34,22.11-10.52,43.83-21.42l46.05-22.55Q230,98.69,286.12,74.84l85.67-24.25c-14.59,8.06-29.15,16.15-43.54,24.34q-32.12,18.79-63.41,38.21c-57.91,35.38-113.57,72.32-169.29,109.25q-45.37,30.68-95,58.12V403c1.65-.85,3.31-1.7,5-2.57,53.89-27.66,105.63-57.13,157.18-86.71,9.61-3.53,19.16-7.13,28.6-10.88,29.34-11.09,54.86-25.54,80.49-40q21.66-11.81,42.42-24.32l31.5-19.27c9.16-6.53,18-13.25,26.61-20.1q41.32-20.57,82.45-41.3c.83-.42,1.63-.85,2.45-1.27-2.74,2.17-5.46,4.35-8.22,6.52l-47.82,38q-36.39,27.36-75.22,53.17l-33.38,21.2c-29.65,18.14-59.2,36.34-88.38,54.82q-11,5.89-22.38,11.55l-72,33.45q-36.16,19.35-70.37,40.31-6.52,4.64-8.27,10.91C29.44,433.92,40.28,437,48,440.17c.69.3,1.39.58,2.09.87l-3.55,3A520.23,520.23,0,0,0,5.27,484.51ZM388.74,110.79c-5.7,7.68-11.37,15.34-17.1,23L367,135.92c-11.77,5.52-23.42,11.16-35.11,16.74l-9,4.29q-49.11,32.81-99,65.07C154.37,267.36,80.76,309.83,5,350.49c7.08-6.16,14.34-12.24,21.85-18.19,38.63-32.37,84.9-60.7,129.92-88.9,40.86-25.59,84-49.51,126.38-74q53.31-29.65,106.27-59.59ZM221.59,484.49c6.66-3.81,13.29-7.64,20-11.42,2.67-1.52,5.36-3,8-4.52a105.5,105.5,0,0,0,14.28.6c2.56.11,5.1.12,7.62.05Q246.45,476.7,221.59,484.49Zm206.28,1.32q6.48-5.6,13-11.18,8.91-4.62,17.78-9.27Q443.11,475.49,427.87,485.81Zm32.46-90.28q-30.45,12.74-60.67,25.75l-71.35,31.29q-14.13,4-28.17,8.14c38.16-26.21,76.35-52.37,114-78.91q63-29.71,130.26-54.49Q502.43,361.47,460.33,395.53ZM555,304.17q29.38-16.31,58.21-33Q602,280.31,590.76,289.5,572.79,296.76,555,304.17Zm99.71-10.69,3.8-3.29q37-9.7,73.29-20.57a140.77,140.77,0,0,0-23.7,15.82c-26.07,13.3-52.56,26.25-79.18,39.16l-22.3,9.87Q630.73,314,654.7,293.48ZM496,56.67A327.63,327.63,0,0,1,532.68,20q20.42,0,40.78,1.08-2.69,3.34-5.35,6.7A430.13,430.13,0,0,1,528.72,67Q498.6,79,468.38,91C477.38,79.47,486.52,68,496,56.67ZM330.73,289.76c44.4-28.8,88.53-57.77,132.81-86.64l73.8-51.38q51-40.14,97.69-82.58c4.1-3.57,1.8-8.63-2.24-12.29,3.63-1.73,7.25-3.45,10.84-5.21l28.59-13.85c9.68-5.71,19.56-11.27,29.54-16.75-20.94,35.12-43,69.93-65.12,104.71q-23.86,37.83-48.41,75.44-5.06,9.49-10.49,18.89-24.5,10.8-48.29,22.41a670.16,670.16,0,0,0-58.73,32.36L449,292.35q-42.36,15-83.84,31.19-52.49,27.87-114.56,42.84c-20.39,5.53-39.81,13.26-58.88,21C235.81,353.48,283.54,321.66,330.73,289.76ZM90.3,473.39l-4.47,4.86q14.6-14.91,30.48-29.22l11.4-.87a320,320,0,0,0,40.65-12L185.09,429q19.08-9.51,39.43-17.78,22.41-10,45.61-19.2L293,383.66q27.78-12.84,56-25.2-23.58,14.18-45.82,29.26-14.67,13.44-29.89,26.58-97.75,44-202,80Q80.33,483.65,90.3,473.39Z"/><path class="cls-6" d="M158.14,422.82c11.93-5.74,23.72-11.59,35.46-17.5q-18.9,38.31-60.18,62.37-26.1,10.41-51.37,21.92l46.12,10H749.93V0H681.1q-4,2.63-8,5.27c-17.55,11.59-36.2,22.5-55.41,32.8l-13.08,6.64Q619.23,22.36,633.83,0H.54V392.13c4.07-.22,8.14-.4,12.21-.64l1.82-.09c-4.79,4.48-9.45,9-14,13.57v65.74Q35.37,462.37,69.06,452,114.87,439.15,158.14,422.82Zm506.58,71.06,37.49-44.44,7.73-5.29q-22.56,26-45.56,51.74C664.49,495.22,664.61,494.55,664.72,493.88Zm-299-262.15-8.34,11.05-4.22-7.39ZM263,401q39.23-3.15,77.95-8.57l32.72-3.86L359.82,400.4q-26.42,7.11-53.62,13-27.18,6.45-53.6,13.94l-3.37-12.12Z"/><path class="cls-6" d="M581.12,499.59H749.93V390.87c-45.08,31.84-89.79,63.92-135,95.64Q597.89,492.93,581.12,499.59Z"/><path class="cls-6" d="M.54,499.59H190.17L263.78,473c1.18,0,2.35,0,3.53-.07q16.33,1.29,27.91-5.87l8.52-6q28-8.3,55.52-17.32-16.15,13.52-32.14,27.11-19.71,9.89-39.56,19.65c-6.26,3.07-12.59,6.07-19,9H513.12C546,477.39,577.44,454.11,609,431.1c30.68-22.36,59.91-45.88,87.93-69.86,5.82-.25,11.65-.49,17.48-.76q17.83-.78,35.53-2.25V331c-6.75.61-13.5,1.18-20.28,1.67q10.25-9.15,20.28-18.39V217.64Q720.43,226.77,691,236q10.71-10.42,22.47-20.24l15.48-4q10.5-2.58,21-5.21v-83l-28.06,17.56q-17.36,7.67-35,15Q645,172.84,603.55,190l14.76-6q-22.53,9.12-44.56,18.46,27.19-36.79,52.33-74.23C655.48,85.46,685.12,42.85,714,0h-97c-1.66,1-3.32,1.94-5,2.89.63-1,1.23-1.93,1.85-2.89H446.21l-3.4,2q-33,5.15-65.88,10.52c-27.42,4.31-65.73,18-100.65,31.75Q319,22.17,361.53,0H253.44Q143.69,39.8,34.69,80.54,17.53,86.93.54,93.51V128C18,119.76,35.68,111.7,53.37,103.67q75.81-31.15,154.27-59.15Q119.7,91.73,30.56,137.91q-15,7.78-30,15.53V205.1L32,189.29q35.89-19.93,70.55-40.85c44.54-26.31,91.32-51.09,137.63-76Q307,52.27,377,37.69c-22.81,12-45.88,23.82-68.69,35.8C244.24,107.12,184,144.08,124,180.86L69.39,214.34Q36.33,236.78.54,257V408.47q32-17,63.7-34.25,15-8.18,29.68-16.54Q48.13,390.62,1.54,423.06l-1,.72v18.44c1.12.64,2.23,1.3,3.38,1.91q-1.69,1.46-3.38,2.94ZM635.39,288.75l11-10.32q48.5-16,97.71-31l-5,4.34L734.93,254a32.7,32.7,0,0,0-6.76,3.41l-.44.24c-23.05,11.69-46.38,23.13-69.63,34.58Q632,305,605.06,317,620.26,302.91,635.39,288.75ZM196.88,480.81c3.35-2.12,6.67-4.26,10-6.36l4.06-2.38c1,0,2,0,3.05,0,1.93.14,3.86.22,5.79.33Q208.38,476.62,196.88,480.81ZM422.72,391.7l-45.79,17.85c31.47-22.19,61.57-45,91-68.3Q483,335.6,498.16,330,460.57,360.95,422.72,391.7ZM560.79,278.11Q553.52,281,546.32,284c-2.92,1.2-5.81,2.42-8.72,3.63q18-10,35.74-20.07Q567.05,272.84,560.79,278.11ZM452.62,55.34Q462,45.53,471.4,35.71c4.21-4.24,8.69-8.33,13.3-12.36l6.88-3.61Q520.22,16.1,549,13.1l-2.1,3A350.33,350.33,0,0,1,513,51.9c-16.7,7.44-33.49,14.78-50.51,22q-20.16,8.58-40.13,17.32Q436.83,73.07,452.62,55.34ZM409,203.14l45.38-32.41Q528.73,126.95,587,73.31q7.65-3.57,5.55-9.53A21.19,21.19,0,0,0,585,54.4q10.57-6.76,21.08-13.58l8.39-5c14.53-7.32,29.1-14.71,43.23-22.46q-35,53.42-71.31,106.43Q560.12,160,531.27,199.41q-8.19,15.09-17.14,30c-19.28,9.39-37.76,19.55-56.07,29.75q-15.66,8.61-30.67,17.7-10.5,6.56-20,13.72Q361,307.13,316.15,325.77q-49.75,27.71-109.27,42.94-13.78,4.53-27,9.71Q195,365.24,210.3,352.17q26.05-22.32,52.59-44.38Q291,284,322.16,262.08,365,232.21,409,203.14ZM114,346.22c39.31-22.74,77.68-46.2,116-69.71,43.35-26.62,84.85-54.66,126.21-82.71-43.59,32.54-90.31,62.86-136.25,93.88A1102.41,1102.41,0,0,1,114,346.22ZM26.47,319.8l-3,1.26,15.91-13.94q25.7-21.3,52.59-41.93c31.49-24.66,65.19-47.61,99.91-70.17q49.68-30.12,101.31-58.7L355,99.85c3.52-1.8,7-3.65,10.46-5.48-5.84,7.75-11.59,15.52-17.39,23.22l-9.57,13.24Q318.15,141,298,151.26q-12.9,6.44-25.86,12.83l-48.43,33.07Q174.35,230.25,123,261.94,75.85,291.67,26.47,319.8Zm65,142.13c2.43-.21,4.85-.47,7.28-.8,17.28-1.22,33.41-7.21,47.89-13.24q9.39-3.83,18.58-7.84c18.85-9.72,37-19.86,55.24-30.12q22.45-12.63,45.88-24.41c-2.48,2.05-5,4.07-7.47,6.13-2.66,2.27-5.27,4.58-7.82,6.9l-112.45,56q-30.55,11.73-61.5,23Q84.15,469.67,91.5,461.93Z"/><path class="cls-6" d="M15.85,62.55q44-18.36,87.23-37.56c18.46-7.25,38.36-16.4,56.62-25H.54V70.27C5.67,67.72,10.76,65.14,15.85,62.55ZM27.92,22.08l9.34-3.95c-2.88,1.57-5.8,3.12-8.69,4.68l-7.3,2.05Z"/><path class="cls-6" d="M124.69,10.66c6.89-3.48,13.66-7,20.37-10.66H42.59L30.79,6.51Q19.9,8.6,8.53,10l-4,.91q9-5.07,18-10.07L24.8,0H.54V70.09A1219.12,1219.12,0,0,0,124.69,10.66Z"/><path class="cls-6" d="M62.58,339.67l.31-.13q76.1-29.93,146.72-65.15a89.3,89.3,0,0,0,11.73-4.84Q280.5,240.71,334.5,207.8q63.39-35.45,123.78-73.27,19.7-10.57,39.2-21.3l-10,10.89L470.3,141l-9.88,8.58-22.78,17.51q-31.59,23.26-66,44.64c-1.38,1-2.8,2-4.19,3q-12.94,7.88-25.58,16Q299.42,256.78,257.3,283c-3.33,1.76-6.66,3.53-10,5.26q-81,32.29-147.26,77.24c-4.45,2.37-7.26,5.45-8.4,9.25-2.51,6.16-2.09,10.51,6.12,14.07l4.82,2.1Q95.23,397,88,403a506.13,506.13,0,0,0-41.65,41A317.76,317.76,0,0,0,13.62,486.8c-2.78,4-2.57,8.62-.53,12.79H62.91q70.5-26.64,140.67-53.7Q169.44,464.75,136,484.16A14.71,14.71,0,0,0,132,494.47a13.32,13.32,0,0,0,.18,5.12h43.09l88.06-33.83q94-30.56,183.9-66.26-9.37,7.75-18.73,15.51-21.63,10.75-43.63,21.17L347.21,453q-38.55,16.68-76.33,34.13c-8.71,4-17.27,8.2-25.75,12.42h81.12l8.16-3.66-2.73,2.45c-1.72.39-3.42.81-5.13,1.21h64.06l3.09-.85,2.23.1-1,.75h87.75q6.66-1.09,13-2.72c-1.27.9-2.5,1.82-3.77,2.72h57.21a351.73,351.73,0,0,0,30.24-20.93l36.79-26.45q44.58-32.62,86.15-67,24.23-19.44,47.6-39.27V207.48L725.2,217.86q12.39-10.47,24.73-21V116.42q-12.37,9-24.74,17.94-21.51,7.62-42.7,15.82,5.57-9,10.79-18.09c18.38-29.63,37.46-59.07,56.65-88.48V0H567.56q-4,4.56-8.24,9.08C548,20.27,536.46,31.14,524.5,41.84q-9.19,3.6-18.36,7.24c3.26-4.23,6.51-8.46,9.82-12.66Q530.81,17.79,547.68,0H364.13c-6,1.9-12,3.78-18,5.7L339.43,8l14.89-8H223q-45.27,15.5-89.81,32C88,48.2,43.89,65.66.54,83.92v30.43c48.37-21,99.11-39.73,148.75-58.93q27.5-10.66,55.53-20.62c-25.5,17.94-50.65,36.12-75.9,54.21L113,99.36q-16.23,6.94-32.59,13.76Q39,127.82.54,145.73v47.16c3.32-1.19,6.64-2.38,10-3.52A277.24,277.24,0,0,0,55.74,167l45.56-25.42Q119,131.3,136.78,121.09q26.6-12,52.72-24.43,50-23.72,102.5-44.93L329.81,35c-5.1,3.3-10.24,6.58-15.29,9.92-46.33,30.16-91.49,61-136.12,92.29q-52.08,38.5-106.2,75.7L5,253.11c-1.49.78-3,1.53-4.5,2.3v32.81l1.35-.55L.54,288.74v83.57q18.36-9.46,36.6-19.07Q49.91,346.49,62.58,339.67Zm232,88.62,7.27-4a46.18,46.18,0,0,0,7-.75Q301.74,425.92,294.62,428.29ZM86.75,459.76l.23-.27a506.84,506.84,0,0,1,40.53-40.89c6.75-6.43,13.8-12.73,21.08-18.91l1.26,0a103.19,103.19,0,0,0,36.77-4.7c16.83-3.63,31.7-9.59,46.94-15.45q22.63-9.53,45.55-18.75,23.17-9.63,47.11-18.37,13.63-4.08,26.82-8.79,31.31-14.08,63.25-27.49Q392.74,319.38,369.77,333a534.06,534.06,0,0,0-52.33,36Q204.15,416.82,86.75,459.76Zm290.59-58.21q-29.56,9.26-58.88,18.86,14.84-10.34,29.72-20.64,17.9-9.31,36-18.47Q472,338.72,558.22,294.58q14.5-4,28.91-8.2-22.57,18-45.14,36-18.65,14.91-37.13,29.89-27.11,12.16-54,24.57Zm135.43,16.89q-43.38,27.46-84,56.76l-4.79.4-5.32,1c-2.14.71-4.3,1.38-6.45,2.07,7.12-6.3,14.2-12.62,21.36-18.9Q445.73,449.34,458,438.9q64-33,127.64-66.27l11.27-5.87Q554.2,392.14,512.77,418.44ZM572,275.77l1.67-.9,82-47.57c6.25-3.71,12.45-7.46,18.67-11.18q-24.4,20-49.14,39.84Q598.51,265.81,572,275.77Zm158.68-33.89Q697.2,261.11,663.25,280l-31.12,15.34q21.61-17.64,43-35.43Q703,251.09,730.63,241.88Zm-208.3-86.32,64.95-53.14A635.09,635.09,0,0,1,672.79,28c4.94-3.48,6.5-7.29,4.73-11.44,1.51-.54,3-1.09,4.49-1.67q14.67-5.49,29.11-11.22Q692,39.09,673.29,74.59q-19.39,36.9-38.16,73.92a284.37,284.37,0,0,1-14.53,27.36c-9.68,4.33-19.27,8.74-28.7,13.27-28.32,13.64-56.23,27.74-81.4,44l-17.4,14.23q-35.72,13.34-70.89,27.31-43.84,17.1-86.35,35.7-15.76,4.27-31,9.28-27.16,8.91-53.15,19.3-23.72,9.29-47.37,18.65c-.85.36-1.73.67-2.58,1,18.59-13.33,37.73-26.33,56.7-39.23,36-23,72-46,108.53-68.7l23.29-11.43q18.18-11.36,36.21-22.81l17-12.17c3-1.79,6-3.59,9.09-5.37Q492.11,180.22,522.33,155.56ZM11.68,326.89c5.24-4.77,10.58-9.5,16.12-14.13q27.58-23,58.4-44.14,31.26-21.63,65-41.54,42.29-24.54,85.33-48.48,47.1-27.21,96.43-52.54,20.85-9.66,40.63-20.12l-4,5.23-5.63,2.73q-48.1,32.76-97,65c-49.71,33-103.62,63.42-156.59,94-31.91,18.43-64.62,36.22-97.77,53.64Z"/><path class="cls-6" d="M615.09,479.08l-44.18,20.51h179V395.22c-21,17.8-41.85,35.67-62.91,53.4Q650.36,463.05,615.09,479.08Z"/><path class="cls-6" d="M.54,46.94v39.2q18.75-10.2,37.51-20.42c4.26-2.32,8.57-4.61,12.85-6.91,9.63-4.22,19.2-8.51,28.64-12.93L123,25.67Q151,12.37,180,0H78C53.88,14.91,30,30,5.89,44.93,4.11,45.6,2.31,46.26.54,46.94Z"/><path class="cls-6" d="M749.93,499.59v-5l-12.87,5Z"/><path class="cls-6" d="M127.47,378.74q-30.28,17.19-60.36,34.51-6.72,2.5-5.57,7.68a23.53,23.53,0,0,0,5,11.78c5.63,7,17.9,4.67,26.43,1.57l108.85-39.54q95.93-26.94,178.92-68.13-16,13.27-31.94,26.59c-45.23,22.8-92.94,43.33-139.66,64.7q-38.76,18-74.89,38.26a598.37,598.37,0,0,0-66.66,43.43H147q22.64-14.86,47.18-28.35c1.64-.9,3.3-1.78,4.94-2.67l23.47-5.33q-8.1,7.17-16.27,14.32-12.6,11-25,22H295.41c28.88-23.31,58.62-46.14,88.43-68.91q9.11-1.47,18.25-2.85l23.21-2.58q-41.16,26.24-80.88,53.47l-37.6,20.87H491.15l18.72-10.35a36.36,36.36,0,0,0,3,3.34,1.58,1.58,0,0,0,.15.12c-3.4,2.24-6.68,4.55-9.91,6.89h86.67A701.75,701.75,0,0,0,665.34,463q-20.55,17.91-39.48,36.57h49.4c2.38-2.37,4.74-4.75,7.15-7.12,20.57-20.19,43.8-39.2,67.52-57.82V284.76q-27.66,21.83-55,43.85L652.3,362.27l-33.71,13.09q-72.92,30.38-142.08,64.48-55.59,27.56-110.46,55.75l44.21-24.86q51.6-31.73,101-65C591.66,352.82,665.17,295.59,734,235.86q7.95,0,15.94-.14V104.33q-53.56,25-107.19,49.85a717,717,0,0,1,73.42-53q16.77-5.32,33.77-10.31V19.82l-37,25.31L681.36,53.8Q656.47,62,632,70.76c-6.39,2.24-12.68,4.59-18.93,7q19.35-29.51,38.9-59Q658.19,9.4,664.44,0H589.71Q582,13.67,574.4,27.34,553.19,66.51,533,105.92c-1.36,2.89-2.83,5.74-4.35,8.58-28.87,13.72-57.06,28.79-82.23,45.31L438,165.34c-3.39,2.88-6.83,5.72-10.26,8.58Q344,205.44,263.67,240.72A556.47,556.47,0,0,0,210,258.13q-25.29,9.6-50.23,19.6-17,7.54-34.81,14.25l.92-1.21,8.54-6.33,40.15-25.66q48.72-28,96.22-56.94,42.4-27.12,81.74-56.25c32.8-20.64,65.18-41.61,98-62.22q40.23-21.63,69.95-49.22A304.22,304.22,0,0,1,553.12,0H241.34c-47.74,29.91-93.7,61-139.59,92.23L43,132.11a304.18,304.18,0,0,1-42.49,33v42.34q7.8-5.64,15.84-11.16c45.7-33,98.82-61.09,150.76-89.4l52-28.32Q268.94,51.77,316.23,23c-3.21,4.3-6.39,8.62-9.65,12.9-.92,1.23-1.87,2.45-2.82,3.66l-5.08,2.55-7.27,4q-47,32.51-95.14,64.2c-49,32.68-101.9,62.9-154.06,93.27-13.74,8-27.67,15.86-41.67,23.65V269c5-2.74,10-5.47,14.93-8.22A1430.23,1430.23,0,0,0,199.39,173q40.55-20,79.82-41.14c22.42-12.09,42.61-26.36,62.29-40.37q11.89-8.67,22.8-17.87,12.06-4.83,24.55-9.25c-1.42,1.45-2.89,2.88-4.31,4.33q-23.39,23.91-48,47.23l7-6.24q-13,11.92-27.22,23.09-23.61,14.06-46.87,28.36-37.94,22.22-74.79,45.23-35.17,22.2-69.53,45c-6.89,4.52-13.61,9.14-20.25,13.8Q74.4,282.7,43.12,299.73q-8.46,3.22-9.18,9.81a8.68,8.68,0,0,0,2.44,8.19q-10.5,8.68-20.86,17.45c-5.14,4.53-10.1,9.13-15,13.78v75.45l102.32-36.94Q115.24,383.18,127.47,378.74Zm435.78,51.57.94-.41q-12.09,8.57-24.47,16.93c-14,5.36-28.38,10.33-42.51,15.56Q529.9,446,563.25,430.31Zm-271,24.27q-5.61,4.19-11.17,8.41,9.49-8.44,18.94-16.92l4.8-1C300.6,448.25,296.38,451.4,292.22,454.58Zm99-72.09q-18.15,12.57-35.92,25.38-8.13,1.35-16.22,2.81,11.67-10.5,23.49-20.9c25.13-12.09,49.7-24.8,74.09-37.61Q413.77,367.19,391.26,382.49Zm335-241.15c-8.61,7.76-17.18,15.55-25.8,23.31q-34.73,18-70.26,35.26l-62.39,30.67q-19.51,9.87-39.37,19.4,15.58-12.79,31.14-25.59l50.84-41.73c4.2-4,8.5-7.87,12.84-11.74C658,161,692.14,151.15,726.23,141.34ZM584.59,120.65c14.39-6.32,29.18-12.21,44.19-17.85q-7,5.07-13.94,10.2-15.39,3.93-30.6,8.11Zm-72.6,77q35.37-16.86,69.74-34.57l-6.7,5.59-24.9,20.12-66.5,22.83Q497.76,204.56,512,197.62Zm4,18.72-42.18,34.08q-32.68,26.41-65,53l-4.71,1.94-110,29.37q-31,9.93-61.81,20.2l7.08-3.82c1.12-.25,2.23-.52,3.34-.84a58.38,58.38,0,0,0,20.26-7.72l20-14.27q17.71-9.09,35.63-18L408,268.44Q461.14,241.58,516,216.34ZM22.72,382.55C38.43,363.24,58.43,345.48,78.28,328a146.77,146.77,0,0,0,31.53-1.82l14.6-2.58a212.73,212.73,0,0,0,31.51-10.06c12.13-4.38,23.48-9.85,34.73-15.2q23.06-9.39,46.29-18.57l24.27-9a596.44,596.44,0,0,0,79.25-29.62,432.31,432.31,0,0,0-48,33.88,390.09,390.09,0,0,0-43.51,26L207.8,317.75Q113.51,354.47,17.34,388.9C19.12,386.78,20.87,384.65,22.72,382.55Z"/><path class="cls-6" d="M20.28,6.88,38.48,0H.54V14.74Z"/><path class="cls-6" d="M123.84,410a136.13,136.13,0,0,0,22.06,2Q81.25,445.66,19.23,481.5q-7.29,6.69,1.92,12.18a81.8,81.8,0,0,0,39,3.61Q97,496,133.37,492.06a87.61,87.61,0,0,0,17.95-1.94l-.4.18q-9.81,4.57-19.45,9.29H707.11c.77-1.47,1.56-2.93,2.32-4.4,7-13.29,13.7-26.66,20.28-40.05l20.22-8.73V194.58l-2.87,1c.58-.63,1.15-1.27,1.72-1.9l1.15-.58V10.72c-1.5.92-3,1.84-4.49,2.74C727.7,24.28,710,34.64,691.15,44.59q-64.93,40.62-130.22,81-25.86,16-52.22,31.67l-3,1.59q24.7-36.68,49.52-73.32,26.38-38.69,52.58-77.42c1.82-2.69,3.59-5.4,5.4-8.09H413.36A477.6,477.6,0,0,1,368,36.26c-7.94,6-16.31,11.75-25,17.3,6.2-8.16,12.42-16.31,18.79-24.39l15-17.72L387.43,0H245.64L231.21,7.66c-1.66.47-3.3.95-5,1.41Q193.1,20.56,160.8,33.13C113.48,50.63,67.3,69.18,21.49,88.34c40-21.13,80.46-41.89,120.67-62.82Q166.72,12.74,191.29,0H94.55Q74.63,11.33,54.78,22.69q7.44-7.2,14.48-14.6C75,5.36,80.76,2.69,86.52,0H.54V464.29q35.09-10.86,67.87-24.59Q96.57,425.23,123.84,410ZM651,400.27l-7,6.05a481.86,481.86,0,0,1-40.22,26.91c-1.08.7-2.21,1.36-3.31,2l-1.39.57Q625.13,418.13,651,400.27ZM527.33,425.65l8.22-4.35-22.62,15.9Q520.12,431.41,527.33,425.65Zm-249.93,6.7c-28.68,13.93-58.2,27.14-87.65,40.36l22.18-11.8a475.74,475.74,0,0,0,74.71-51.66l3.57-2.2c5.71-2.83,11.14-5.79,16.36-8.85,3.05-.47,6.11-.9,9.15-1.37,1.39-.1,2.75-.25,4.11-.38Q298.53,414.35,277.4,432.35ZM454.65,80.18A784.38,784.38,0,0,0,533.05,6c-2.83,4.51-5.63,9-8.48,13.53Q473.77,100.64,424.1,182q-13.78,20.64-29.73,40.48a942.71,942.71,0,0,1-143,61l-6.17,3.78q-17.77,11.33-34.43,23.35Q192,316,174.16,322.69q6.14-6.88,12.26-13.78c23.76-26.76,46.16-54,67.72-81.62C324.43,180.44,391.75,131.61,454.65,80.18Zm-279,23.9,49.86-32.51Q239.25,65,252.69,58.09C240.71,74,229,90,216.75,105.71q-8.1,9.17-16.21,18.31c-3.22,3.16-6.52,6.26-9.86,9.35-5.23,2.33-10.47,4.66-15.76,6.94-23.56,10.59-38.67,17.68-49.36,24C142.79,144.41,159.36,124.3,175.65,104.08Zm-86.92,101L85,211.19c-1.62,1-3.23,2-4.86,3.05Q84.43,209.68,88.73,205.1Z"/><path class="cls-6" d="M85.8,40.48c20.52-10.77,41.85-23.36,63-36.45l8.79-4H.54V85.08C30.3,70.34,59.07,54.51,85.8,40.48Z"/><path class="cls-6" d="M152.51,321.12a327.38,327.38,0,0,0,51.12-25L224.46,284q40.36-23,79-47.4c17.65-10.87,35.27-22.25,51.58-34.1Q367,194.33,378.64,186q45.45-23.73,89.56-48.6l1-.55C460,146.86,451,157,441.94,167l9.88-10.28q-12.84,14.08-27.49,27.3-20.56,16.66-42.73,32.39-40.8,27.83-84.91,53.27-56.44,32.6-112.48,65.52Q133,366.32,79.66,395.84,73,400.7,73.22,407.29c.38,4.33,5.5,7.6,11.57,10L80,421.25a534.33,534.33,0,0,0-41.61,40.47c-11.82,12.17-21.49,24.9-30.86,37.87H114.74q25.65-9.06,50-19.65l3.83-1.76q-18.9,10.59-37.54,21.41h94.7l8.78-3.84q93.74-33.27,188.66-65-4.32,3.6-8.62,7.2-39.63,19.88-80.21,38.89l-38.17,16.92c-4.37,1.91-8.69,3.87-13,5.81H560.28c5.44-4.17,10.84-8.35,16.18-12.59,31.74-24.26,62.61-48.92,93.4-73.74q41.31-33.28,80.07-67.72V109.12l-25.78,17.8q-35.83,25-71.61,50.08,20.1-32.07,40.92-63.93,28.15-43.59,56.47-87.14V0H664.6l-.68.45q-9.48,4.39-19,8.69c2.64-3,5.18-6.06,7.66-9.14H388.87c-14.07,8.26-28.16,16.5-42.13,24.79q-25.12,6.77-49.35,15,20.34-11,40.64-22.08Q354.31,8.83,370.63,0H260.38c-2.32,1.53-4.65,3.06-7,4.6q-25.81,12-53.79,21.94Q128.8,52.43,58.11,78.48,28.89,89.22.54,100.83v38.38C47.46,117,97.46,97.73,147.12,78.47c-23.06,16.84-45.84,33.86-68.63,50.87l-1.71,1.18q-24.73,10.38-50.1,20c-8.74,4-17.43,8-26.14,12V214q22.31-12.79,43.65-26.35,14.66-7,29.38-13.9,39.6-16.33,77.29-34.6,30-14.53,60.56-28.58-46.83,30.51-92.14,62l-54.82,38Q33.85,232.46.54,252.32v45.05q4.48-1.68,8.93-3.43c-3,2.21-6,4.44-8.93,6.68V402.71q54.21-28,107.52-56.87Q130.53,333.68,152.51,321.12ZM292.06,452.7c4.46-2.45,8.89-4.92,13.37-7.35q4.6-.08,9.11-.44Q303.33,448.84,292.06,452.7Zm47.81-85.18q-11.67,8.6-23,17.39-98.76,45.27-204.13,82.57l.67-.78Q129.82,448.9,148.31,432c1.65-1.51,3.34-3,5-4.48,10.42-.76,20.77-2.48,30.7-4.09a343.53,343.53,0,0,0,39.15-12.81c21-7.57,40.64-17.12,60.53-25.85q22.55-10.33,46.47-19.16l23.61-8.26C349.09,360.73,344.44,364.1,339.87,367.52Zm159.77.69q-41.76,19-85.85,35.7l-60,24.92q22.23-15.46,44.4-30.95,39.54-19,80.45-36.79,28.9-11.32,57.77-22.69ZM603.7,283.7l-40.75,13q-24.9,8.55-49.28,17.66l2.1-1.68c3.79-1.69,7.52-3.43,11.17-5.26l11.21-5.17a157.32,157.32,0,0,0,19.05-13.23q27.76-16,55.25-32.13,19.9-6.62,40-13Q628.09,263.83,603.7,283.7ZM642.65,54.34q8.1-5.46,5.3-12.05l8.87-4q11.92-6,23.74-12.19-1.95,3.6-3.89,7.22-20.34,37.53-40.25,75.18c-17.87,33.59-34.85,67.39-52.14,101.12-12.29,5.93-24.39,12-36.33,18.21q-13,6.67-25.42,13.78c-15.78,8.8-27,17.47-39.36,27.45l-79.7,29.76A580.06,580.06,0,0,1,289.2,342.24c-19.49,5.71-38.08,13.18-56.41,20.68,26.11-19.38,53.4-38.1,80.44-56.82,8-5.56,16.16-11,24.33-16.5q24-14.19,45.78-30c1.23-.91,2.42-1.84,3.64-2.74,15.87-10.56,31.59-21.21,46.79-32.19q42.74-27.37,75.09-60.56c8.92-7.89,14.89-16.8,18-26.67a2.75,2.75,0,0,0,.26-.22Q593,101,642.65,54.34ZM503.56,41.18c4-4.74,8.11-9.34,12.42-13.85q5.6-.36,11.21-.66l-2,2.22L510.14,44.17q-15.58,14.36-31.8,28.16C486.58,61.89,494.93,51.5,503.56,41.18ZM281.49,134c26.95-16.21,54.64-31.76,82.76-46.94a309.69,309.69,0,0,1-46.1,26.73q-26.1,15.11-52.69,29.85C270.82,140.4,276.13,137.17,281.49,134ZM72.41,305.88c29.76-24.15,64.36-45.69,98-67.33,41-26.41,85-50.86,128-75.74q17.31-10,34.41-20.27-6.27,8.37-12.92,16.62Q289,179.47,258,199.67C192.85,242.29,124.22,282.44,53.6,321,59.75,315.86,66,310.82,72.41,305.88Z"/><path class="cls-6" d="M621.17,492.45q-8.37,3.54-16.65,7.14H749.93V386.26c-26.9,21.88-53.33,44-80,66Z"/><path class="cls-6" d="M112.68,467.51c.16-.19.34-.37.51-.55l-.5.54Z"/><path class="cls-6" d="M.54,474.16v25.43H121q9.67-2.34,19.24-4.93c-3.07,1.63-6.11,3.29-9.17,4.93H749.93v-449c-10.67,7.19-21.29,14.42-32,21.58-16.53,11-33.19,21.64-50.64,32q-31,20.27-59.93,41.79c3.73-5.85,7.5-11.68,11.22-17.54C643.32,89.62,668.46,51,693.25,12.25c2.21-4.12,4.55-8.19,7-12.25H.54V268.28q4.28-3.72,8.35-7.59l9.39-5.09Q46.83,240.11,75.86,225L48.18,248.14Q24.33,265.69.54,283.26V446a102.23,102.23,0,0,0,26.91-4.66c3.55-1.9,7.06-3.83,10.61-5.74q-5,4.64-9.9,9.35A321.43,321.43,0,0,0,.54,474.16ZM295.37,340q11.92-13.28,23.85-26.54,27.54-31.73,39.85-67.55c52.16-33.79,101.46-69.49,150.61-105.22q9.59-6.3,19.12-12.62c5.62-3.88,11.18-7.79,16.76-11.7q-14.5,27.33-28.77,54.71Q496.41,212.2,474.47,253c-1.79,2.66-3.62,5.31-5.41,8q-31.21,26-63.62,51.4-54.93,16.46-107.56,36.22l-14.57,3.51Q289.39,346,295.37,340ZM234.63,159.44a44.81,44.81,0,0,0,.65-9.92q4.8-1.8,9.64-3.52Q239.85,152.75,234.63,159.44ZM112.24,44.09c1.62-.45,3.22-.93,4.83-1.4q-7.81,5.41-15.58,10.87c-.32-1.65-.73-3.28-1.2-4.91C104.27,47.13,108.25,45.6,112.24,44.09ZM69.31,136.53Q94.92,121,121.19,106.1c35.43-20.57,71.55-40.6,107.58-60.68,3.51-2,7.06-3.89,10.58-5.84q-11.62,6.77-23.18,13.6c-21.84,12.94-43.29,26.22-64.54,39.65l-7,1.53,1,2.32q-20,12.67-39.82,25.47Q87.48,129.28,69.31,136.53Z"/><path class="cls-6" d="M19.59,7.15,33.12,0H.54V19.36Z"/><path class="cls-6" d="M126.72,366.35a113.7,113.7,0,0,0,36.63-3.84l8.61-4Q99.23,399.17,28.53,441.44q-11.24,4.32-9.4,12.61Q24,461.76,37,461.48a362.16,362.16,0,0,0,52.47-7.12,338.14,338.14,0,0,0,50.24-12.45l53.52-31.24a787.38,787.38,0,0,1,97-51.19c2.7-.64,5.41-1.25,8.09-1.91q23.92-3.45,40.3-15.08c2.28-1.75,4.53-3.52,6.81-5.27q7.23-2.64,14.55-5.17-39.09,33.42-77.28,67.28c-4.35,2.14-8.69,4.3-13.05,6.43-37.24,18.15-76.22,34.83-114.19,52.29q-38.73,18.06-74.77,38.49c-1.77,1-3.51,2-5.27,3h282c31-25.86,62.73-51.29,94.32-76.78l39.54-32.36,1.18-.95c42.5-22.77,85.26-45.31,127.77-68.07q36.69-19.65,73-39.59L691.54,283c-59.27,41.84-116.61,84.95-175.43,127.08l-65.64,44.76q-28.43,19-58.38,36.81l-15.11,8H749.93V466.76c-7.14,4.08-14.5,8-22.13,11.6-.1-2.18-2-4.23-5.89-6.15A109.33,109.33,0,0,0,692.82,468c5.47-10.2,10.64-20.48,15.65-30.79l11.83-11.75q14.87-5.2,29.63-10.52V0H723.34c-2.9,1.63-5.78,3.27-8.73,4.89L586.3,85.69l-4.06,2.53q-17.49,9-35.09,18-16.78,9-33.67,17.88c7.06-10.33,14-20.7,20.82-31.12q31.28-46.54,62.84-93H515.39C493.81,35,472.14,69.87,451,104.94a818.17,818.17,0,0,1-53.2,82.91l-8.35,10.8q-41.58,17.76-83.15,35.55-49.11,28.52-108.42,44.66c-7.17,2.18-14.19,4.66-21.11,7.3q8-18.51,16-37a501.38,501.38,0,0,1,77.37-74.74l-9.7,8.47c9.37-7.52,18.8-15,28.2-22.52Q334,129.45,376.76,96.83q35.78-36.43,85.73-64.09Q486.8,17,509.29,0H381.65c-8,5.84-16.31,11.55-24.87,17.08-2.23,1.44-4.53,2.84-6.78,4.26Q358.29,10.63,366.79,0H140.05q-12,4.92-23.94,10,9.65-5,19.32-10H38.24Q19.29,10.73.54,21.58V326.06q18.95-10.95,37.74-22Q25.59,313.93,13.18,324C9,325.87,4.75,327.8.54,329.71v95.66c4.85-2.1,9.69-4.22,14.48-6.39Q72.37,394.11,126.72,366.35ZM619.48,472.28q-11.6.9-23.14,2,2.61-2.5,4.93-5.13l12.58-9.82q12.89-3,25.31-6.79Q629.31,462.4,619.48,472.28ZM686,112q11.49-2.3,23-4.62-6.36,7.71-12.69,15.42l-1.89.57q-16,5.38-32,10.88Q674.09,123.07,686,112Zm-124.54,45.6,7.89-3.09q-14.11,11.79-28.15,23.61l-5.66,2.15Q548.49,168.94,561.47,157.61ZM477.66,231l2.36-1L442.38,262l-3.08,1.29Q458.79,247.28,477.66,231ZM33.23,199.08q44.9-42,92.39-82.66,6.27-4.78,12.53-9.58Q172,85.17,206.88,64.16,224.18,53.72,241,43l-4.56,6.14a467.64,467.64,0,0,1-33.66,41q-14.37,13.44-29.94,26.08l-42.19,24.07Q79.74,168,33.23,199.08Z"/><path class="cls-6" d="M613.28,183.82l-1.36.66.34-.34Z"/><path class="cls-6" d="M78.81,0H.54V37.84C27,25.57,52.93,12.85,78.81,0Z"/><path class="cls-6" d="M656.73,428.55q-23.65,9.9-46.82,20.34l-67.08,31.38c-13.13,6.4-26.18,12.87-39.25,19.32h64.56l8.53-4.11c-1.86,1.38-3.76,2.74-5.64,4.11H734.37c1.82-1,3.65-2,5.45-3l-3.49,3h13.6V345.18c-29.14,25.4-57.39,51.3-85.89,76.95Z"/></g><g class="cls-7"><path class="cls-8" d="M332.6,254.32a4.47,4.47,0,1,0,4.46,4.46A4.46,4.46,0,0,0,332.6,254.32Z"/><path class="cls-9" d="M258.85,227.42a10.75,10.75,0,1,0,8.75,8.79A10.76,10.76,0,0,0,258.85,227.42Z"/><path class="cls-10" d="M379.31,92.14a10.75,10.75,0,1,0,8.75,8.79A10.76,10.76,0,0,0,379.31,92.14Z"/><path class="cls-11" d="M217.45,250.91a7.55,7.55,0,1,0,7.54,7.55A7.55,7.55,0,0,0,217.45,250.91Z"/><path class="cls-12" d="M257.84,208.49a8.29,8.29,0,1,0,8.29,8.29A8.29,8.29,0,0,0,257.84,208.49Z"/><path class="cls-13" d="M242,232.91a4,4,0,1,0,3.95,4A4,4,0,0,0,242,232.91Z"/><path class="cls-14" d="M206.86,309.67a6.61,6.61,0,1,0,6.61,6.61A6.61,6.61,0,0,0,206.86,309.67Z"/><path class="cls-15" d="M289.05,320.74A12.06,12.06,0,1,0,301.1,332.8,12.06,12.06,0,0,0,289.05,320.74Z"/><path class="cls-16" d="M318.28,218.5a6,6,0,1,0,6,6A6,6,0,0,0,318.28,218.5Z"/><path class="cls-17" d="M381.52,248a6.27,6.27,0,1,0,6.27,6.27A6.27,6.27,0,0,0,381.52,248Z"/><path class="cls-18" d="M433.91,199.32a4.17,4.17,0,1,0,4.17,4.17A4.17,4.17,0,0,0,433.91,199.32Z"/><path class="cls-19" d="M462.93,208.14a8.33,8.33,0,1,0,8.33,8.33A8.32,8.32,0,0,0,462.93,208.14Z"/><path class="cls-20" d="M500.17,223.22A5.8,5.8,0,1,0,506,229,5.8,5.8,0,0,0,500.17,223.22Z"/><path class="cls-21" d="M354.58,286.07c-6.23-4.75-13.26,2.33-8.47,8.53C352.33,299.27,359.29,292.26,354.58,286.07Z"/><path class="cls-22" d="M448.27,154.26a4.79,4.79,0,1,0,4.79,4.78A4.78,4.78,0,0,0,448.27,154.26Z"/><path class="cls-23" d="M471.51,95.18a6.81,6.81,0,1,0,6.81,6.81A6.81,6.81,0,0,0,471.51,95.18Z"/><path class="cls-24" d="M511.37,24.69A5.35,5.35,0,1,0,516.71,30,5.34,5.34,0,0,0,511.37,24.69Z"/><path class="cls-25" d="M443.43,80a8.37,8.37,0,1,0,8.36,8.37A8.37,8.37,0,0,0,443.43,80Z"/><path class="cls-26" d="M388,19.17a10.57,10.57,0,1,0,10.57,10.57A10.57,10.57,0,0,0,388,19.17Z"/><path class="cls-27" d="M307.82,116.28a10.57,10.57,0,1,0,10.57,10.57A10.57,10.57,0,0,0,307.82,116.28Z"/><path class="cls-28" d="M322.42,119.54A6.49,6.49,0,1,0,328.9,126,6.48,6.48,0,0,0,322.42,119.54Z"/><path class="cls-29" d="M263.18,14.49A12.33,12.33,0,1,0,275.5,26.82,12.33,12.33,0,0,0,263.18,14.49Z"/><path class="cls-30" d="M238.07,118a12.33,12.33,0,1,0,12.33,12.33A12.32,12.32,0,0,0,238.07,118Z"/><path class="cls-31" d="M192.61,181.9a12.33,12.33,0,1,0,12.32,12.33A12.32,12.32,0,0,0,192.61,181.9Z"/><path class="cls-32" d="M215.93,59.22a5.27,5.27,0,1,0,5.27,5.27A5.27,5.27,0,0,0,215.93,59.22Z"/><path class="cls-33" d="M174.07,115.68a4.51,4.51,0,1,0,4.51,4.51A4.51,4.51,0,0,0,174.07,115.68Z"/><path class="cls-34" d="M125.8,109.31a7.33,7.33,0,1,0,7.33,7.33A7.33,7.33,0,0,0,125.8,109.31Z"/><path class="cls-35" d="M87.92,82.68a6.69,6.69,0,1,0,6.69,6.68A6.68,6.68,0,0,0,87.92,82.68Z"/><path class="cls-36" d="M94.34,135.49A11.63,11.63,0,1,0,106,147.12,11.63,11.63,0,0,0,94.34,135.49Z"/><path class="cls-37" d="M86.92,157.27a6.54,6.54,0,1,0,6.54,6.54A6.54,6.54,0,0,0,86.92,157.27Z"/><path class="cls-38" d="M100.35,195.17a5,5,0,1,0,5,5A5,5,0,0,0,100.35,195.17Z"/><path class="cls-39" d="M105.54,211.74a6,6,0,1,0,6,6A6,6,0,0,0,105.54,211.74Z"/><path class="cls-40" d="M87.35,229.6a12.87,12.87,0,1,0,12.87,12.87A12.86,12.86,0,0,0,87.35,229.6Z"/><path class="cls-41" d="M124.26,264.83a4.25,4.25,0,1,0,4.24,4.24A4.24,4.24,0,0,0,124.26,264.83Z"/><path class="cls-42" d="M63.69,306.17a6.37,6.37,0,1,0,6.36,6.36A6.36,6.36,0,0,0,63.69,306.17Z"/><path class="cls-43" d="M14.3,379.71a8,8,0,1,0,8,8A8,8,0,0,0,14.3,379.71Z"/><path class="cls-44" d="M39.43,439.68a9.27,9.27,0,1,0,9.26,9.26A9.27,9.27,0,0,0,39.43,439.68Z"/><path class="cls-45" d="M131.85,397.66a10.2,10.2,0,1,0,10.2,10.2A10.2,10.2,0,0,0,131.85,397.66Z"/><path class="cls-46" d="M166.05,362.48a9,9,0,1,0,9,9A9,9,0,0,0,166.05,362.48Z"/><path class="cls-47" d="M205.57,379.17a10.18,10.18,0,1,0,10.17,10.18A10.18,10.18,0,0,0,205.57,379.17Z"/><path class="cls-48" d="M286.63,428.24a5.95,5.95,0,1,0,5.95,5.95A5.95,5.95,0,0,0,286.63,428.24Z"/><path class="cls-49" d="M369.43,459A10.53,10.53,0,1,0,380,469.51,10.51,10.51,0,0,0,369.43,459Z"/><path class="cls-50" d="M423.35,479a10.49,10.49,0,1,0,10.49,10.49A10.49,10.49,0,0,0,423.35,479Z"/><path class="cls-51" d="M477.78,419.11a10.52,10.52,0,1,0,10.52,10.52A10.52,10.52,0,0,0,477.78,419.11Z"/><path class="cls-52" d="M520.46,476.25a6.88,6.88,0,1,0,6.88,6.88A6.88,6.88,0,0,0,520.46,476.25Z"/><circle class="cls-53" cx="573.2" cy="401.85" r="10.68" transform="translate(165.66 971.01) rotate(-89.43)"/><circle class="cls-54" cx="511.24" cy="382.36" r="10.68" transform="translate(122.19 888.52) rotate(-89.25)"/><path class="cls-55" d="M636.57,419.25a4.8,4.8,0,1,0,4.81,4.8A4.79,4.79,0,0,0,636.57,419.25Z"/><path class="cls-56" d="M704.24,414.83a12.85,12.85,0,1,0,12.84,12.85A12.85,12.85,0,0,0,704.24,414.83Z"/><path class="cls-57" d="M326.29,284.56a12.84,12.84,0,1,0,12.84,12.85A12.84,12.84,0,0,0,326.29,284.56Z"/><path class="cls-58" d="M697.34,346.59a7.68,7.68,0,1,0,7.67,7.67A7.67,7.67,0,0,0,697.34,346.59Z"/><path class="cls-59" d="M492.64,309.62a7.68,7.68,0,1,0,7.67,7.67A7.66,7.66,0,0,0,492.64,309.62Z"/><path class="cls-60" d="M728.1,311.76a5.53,5.53,0,1,0,5.53,5.53A5.54,5.54,0,0,0,728.1,311.76Z"/><circle class="cls-61" cx="642.22" cy="230.19" r="11.03" transform="translate(185.19 736.71) rotate(-67.66)"/><circle class="cls-62" cx="636.87" cy="179.79" r="13.12" transform="translate(225.32 698.01) rotate(-67.31)"/><circle class="cls-63" cx="412.23" cy="339.56" r="13.12" transform="translate(-60.07 588.89) rotate(-67.31)"/><circle class="cls-64" cx="480.02" cy="292.06" r="13.12" transform="translate(51.69 655.72) rotate(-71.65)"/><path class="cls-65" d="M742.47,162.34a4.3,4.3,0,1,0,4.3,4.3A4.3,4.3,0,0,0,742.47,162.34Z"/><path class="cls-66" d="M663.78,98.16a4.77,4.77,0,1,0,4.77,4.77A4.78,4.78,0,0,0,663.78,98.16Z"/><path class="cls-67" d="M732.84,2.14a6,6,0,1,0,6,6A6,6,0,0,0,732.84,2.14Z"/><path class="cls-68" d="M581,22.94a5.27,5.27,0,1,0,5.27,5.27A5.28,5.28,0,0,0,581,22.94Z"/><circle class="cls-69" cx="98.82" cy="31.45" r="3.89"/><circle class="cls-70" cx="8.95" cy="94.69" r="6.5"/><path class="cls-71" d="M72.14,155.29a9.93,9.93,0,1,0,9.92,9.93A9.94,9.94,0,0,0,72.14,155.29Z"/><path class="cls-72" d="M67.43,233.66a5.51,5.51,0,1,0,5.51,5.51A5.51,5.51,0,0,0,67.43,233.66Z"/><path class="cls-73" d="M14.39,302a8,8,0,1,0,8,8A8,8,0,0,0,14.39,302Z"/><path class="cls-74" d="M103.46,337.87a5.12,5.12,0,1,0,5.11,5.11A5.11,5.11,0,0,0,103.46,337.87Z"/><path class="cls-75" d="M12.25,401.83A12.26,12.26,0,1,0,24.5,414.09,12.25,12.25,0,0,0,12.25,401.83Z"/><path class="cls-76" d="M13.91,453.17a9.53,9.53,0,1,0,9.52,9.52A9.53,9.53,0,0,0,13.91,453.17Z"/></g><path class="cls-77" d="M749.89,148.83a31.82,31.82,0,0,0-29.54,43.07,31.85,31.85,0,0,0-16.18,23.35,43.6,43.6,0,0,0-57.91,34.87,31.69,31.69,0,0,0-39.6,8.76A24.79,24.79,0,0,0,566.47,273a24.79,24.79,0,0,0-33.41,36.27,24.81,24.81,0,0,0-7.36,27.89,24.73,24.73,0,0,0-28.14,18.55A31.83,31.83,0,0,0,457,404.57a31.87,31.87,0,0,0-17.12,33,31.84,31.84,0,0,0-27.24,56.65,24.16,24.16,0,0,0-3.44,5.35H749.89Z"/><path class="cls-78" d="M749.93,272.77A28.94,28.94,0,0,0,715.41,289a37.33,37.33,0,1,0-45.29,59.32,37.34,37.34,0,0,0-10.2,34.53,37.31,37.31,0,0,0-37.22,50.66,38.79,38.79,0,0,0,1.7,3.76,53.14,53.14,0,0,0-53.92,62.29H749.93Z"/><path class="cls-79" d="M338.69,9.73A28,28,0,0,0,337,0H.54V99.23L.15,200.16v70.38a24.23,24.23,0,0,0,30.41-23.4,24.14,24.14,0,0,0-4.64-14.25,13.37,13.37,0,0,0,2.7.27,13.75,13.75,0,0,0,12.59-19.35,13.56,13.56,0,0,0,13.25-5.93A17.66,17.66,0,0,0,85.1,196a17.68,17.68,0,0,0,13-8.87,24.2,24.2,0,0,0,37-6.54A17.61,17.61,0,0,0,157.35,184a13.77,13.77,0,0,0,23.65.67,13.77,13.77,0,0,0,25.39-7.38,13.9,13.9,0,0,0-.86-4.76,13.78,13.78,0,0,0,9.37-13,13.61,13.61,0,0,0,7,1.91,13.76,13.76,0,0,0,11.3-5.92,17.67,17.67,0,0,0,30.77-17.22,17.65,17.65,0,0,0,15.44-13.7,17.68,17.68,0,0,0,25.4-23.93,13.34,13.34,0,0,0-3.71-24.78,13.1,13.1,0,0,0,.18-2.09,13.29,13.29,0,0,0-3.66-9.16,13.29,13.29,0,0,0,3.66-9.16,12.26,12.26,0,0,0-.07-1.36,14.35,14.35,0,0,0,12.13.54,8.07,8.07,0,1,0,8.93-13.36,14.3,14.3,0,0,0-1.09-5.49A28.12,28.12,0,0,0,338.69,9.73Z"/><path class="cls-80" d="M236.66,34.74A20.72,20.72,0,0,0,224.81,16a20.52,20.52,0,0,0,.55-16H.54V136l-.39.12v30.67a16.09,16.09,0,0,0,21-15.34,16.17,16.17,0,0,0-1.15-6,20.69,20.69,0,0,0,23.27-11.66,29.46,29.46,0,0,0,35.64,2.81A16.08,16.08,0,0,0,106.36,147a20.72,20.72,0,1,0,35.28-21.71,20.73,20.73,0,0,0,12.17-15.86,20.71,20.71,0,0,0,29.37-18.84,21.82,21.82,0,0,0-.13-2.29,29.5,29.5,0,0,0,40.89-27.19,29.71,29.71,0,0,0-.82-6.91A20.72,20.72,0,0,0,236.66,34.74Z"/></g></g></g></svg>