<svg xmlns="http://www.w3.org/2000/svg" xmlns:xlink="http://www.w3.org/1999/xlink" viewBox="0 0 262.72 269.04"><defs><style>.cls-1{fill:none;}.cls-2{fill:#91e8e8;}.cls-3{clip-path:url(#clip-path);}.cls-4{fill:#84a05f;}.cls-5{fill:#175d6c;}.cls-5,.cls-6{opacity:0.5;}.cls-6,.cls-7{fill:#f3f0e7;}</style><clipPath id="clip-path"><circle class="cls-1" cx="130.86" cy="131.22" r="130.86"/></clipPath></defs><title>planet</title><g id="Layer_2" data-name="Layer 2"><g id="Layer_1-2" data-name="Layer 1"><circle class="cls-2" cx="130.86" cy="131.22" r="130.86"/><g class="cls-3"><path class="cls-4" d="M130.86.35s9.06,31.62,0,37.33C77.59,71.25,111.4,97.55,91.94,114.3S52.35,104.37,4.15,98.39C4.15,98.39,0-6.84,130.86.35Z"/><path class="cls-4" d="M253.69,86s-34,5.48-44.74,16.18,8.76,16.31,18.49,29.08,29.15,36.39,29.15,36.39S272.15,119.66,253.69,86Z"/><path class="cls-4" d="M78.08,146.28s42.32-18.59,55.46-15.06,51.82,45.57,53.27,52.64-44.09,60.88-45,77.76c0,0-44.41,16.68-60,0,0,0-27.74-27.63-22.63-42.23S48.89,179,78.08,146.28Z"/><path class="cls-4" d="M32.1,117.22s26.27,5.26,31.38,9.57-13.13,5.76-26.27,10.14-34-19-33.06-19.71S16.57,113.6,32.1,117.22Z"/></g><path class="cls-5" d="M24.08,104.94A130.29,130.29,0,0,1,47.33,30.48a130.87,130.87,0,1,0,191.15,175.2A130.86,130.86,0,0,1,24.08,104.94Z"/><path class="cls-6" d="M237.64,157.49A130.28,130.28,0,0,1,214.4,232,130.87,130.87,0,1,0,23.25,56.75,130.86,130.86,0,0,1,237.64,157.49Z"/><path class="cls-7" d="M68.29,141.72a10.55,10.55,0,0,0-14.09-10,6.08,6.08,0,0,0,0-.61,10.56,10.56,0,0,0-17.75-7.75,10.57,10.57,0,1,0-19.36,8.44A10.57,10.57,0,1,0,13.4,152.3H58.24v0A10.58,10.58,0,0,0,68.29,141.72Z"/><path class="cls-7" d="M125.69,39.9a10.55,10.55,0,0,0-14.09-10,6,6,0,0,0,0-.61,10.56,10.56,0,0,0-17.76-7.75A10.57,10.57,0,1,0,74.52,30,10.57,10.57,0,1,0,70.8,50.48h44.84v0A10.58,10.58,0,0,0,125.69,39.9Z"/><path class="cls-7" d="M242.29,176.72a10.55,10.55,0,0,0-14.09-10,6.08,6.08,0,0,0,0-.61,10.56,10.56,0,0,0-17.75-7.75,10.57,10.57,0,1,0-19.36,8.44,10.57,10.57,0,1,0-3.72,20.47h44.84v0A10.58,10.58,0,0,0,242.29,176.72Z"/><path class="cls-7" d="M182.59,239.21A10.58,10.58,0,0,0,172,228.63a10.74,10.74,0,0,0-3.51.61c0-.2,0-.4,0-.61a10.56,10.56,0,0,0-17.75-7.75,10.57,10.57,0,0,0-20.44,3.8,10.45,10.45,0,0,0,1.08,4.64,10.57,10.57,0,1,0-3.73,20.47h44.85v0A10.57,10.57,0,0,0,182.59,239.21Z"/><path class="cls-7" d="M222.73,66.52a10.57,10.57,0,0,0-14.08-10c0-.2,0-.4,0-.6a10.56,10.56,0,0,0-17.76-7.75,10.57,10.57,0,1,0-19.35,8.43,10.57,10.57,0,1,0-3.73,20.47h44.84v0A10.56,10.56,0,0,0,222.73,66.52Z"/></g></g></svg>