<svg xmlns="http://www.w3.org/2000/svg" xmlns:xlink="http://www.w3.org/1999/xlink" viewBox="0 0 146.44 44.35"><defs><style>.cls-1{isolation:isolate;}.cls-2{fill:#fff;opacity:0.06;}.cls-3{fill:url(#Degradado_sin_nombre_3);}.cls-4{opacity:0.15;mix-blend-mode:multiply;}.cls-5{fill:#230753;}.cls-6{fill:#ddd;}.cls-7{fill:#ff1200;}.cls-8{fill:#f4f2ed;}.cls-9{fill:#040028;}.cls-10{fill:none;stroke:#f4f2ed;stroke-linecap:round;stroke-linejoin:round;stroke-width:0.3px;}</style><linearGradient id="Degradado_sin_nombre_3" x1="404.45" y1="612.13" x2="445.17" y2="587.14" gradientTransform="matrix(-0.78, -0.63, 0.63, -0.78, 17.07, 752.14)" gradientUnits="userSpaceOnUse"><stop offset="0" stop-color="#f1c13b"/><stop offset="1" stop-color="#ff1200"/></linearGradient></defs><title>ship</title><g class="cls-1"><g id="Layer_2" data-name="Layer 2"><g id="Layer_1-2" data-name="Layer 1"><path class="cls-2" d="M32.81,9.22l58.77-.71c5.15.37,9,6.25,8.47,13.07l-.12,1.73c-.49,6.82-5.11,12.1-10.26,11.73L52.87,30.2a.68.68,0,0,1-.24-1.28l2.56-1.4L.55,16.27a.68.68,0,0,1,.08-1.35l35-2.91-3.09-1.49A.68.68,0,0,1,32.81,9.22Z"/><path class="cls-2" d="M38.37,11.52l51.08-.24c4.5.33,7.85,5,7.46,10.46l-.09,1.37c-.39,5.42-4.39,9.6-8.88,9.28l-32-4a.59.59,0,0,1-.18-1.1l2.11-1L10.39,17a.58.58,0,0,1,.07-1.14l30.22-2.1-2.55-1.14A.58.58,0,0,1,38.37,11.52Z"/><path class="cls-3" d="M54.05,14.75l32.78-.35c2.89.21,5,3.46,4.77,7.23l-.07,1c-.27,3.76-2.86,6.68-5.75,6.47L65.27,26.38a.44.44,0,0,1-.15-.82l1.26-.68-30.3-6.17a.44.44,0,0,1,.06-.87L55.36,16.3l-1.49-.71A.44.44,0,0,1,54.05,14.75Z"/><g class="cls-4"><path class="cls-5" d="M86.22,15.89c2.89.21,5,3.47,4.77,7.24l-.07.95A8.15,8.15,0,0,1,90.56,26a8.49,8.49,0,0,0,1-3.36l.07-1c.27-3.77-1.88-7-4.77-7.23l-32.43.35a.52.52,0,0,0-.22,1l1,.48Z"/><path class="cls-5" d="M38.12,19.13l16.63-1.34-2.6-1.23L36.24,17.84a.46.46,0,0,0-.06.9Z"/></g><path class="cls-6" d="M86.19,29.56a1.31,1.31,0,0,0,1.31,1.33h2.55a9,9,0,0,0,9-9h0a9,9,0,0,0-9-9H87.56a1.32,1.32,0,0,0-1.32,1.32Z"/><path class="cls-7" d="M87.33,30.52l0-17.21a1.15,1.15,0,0,1,1.15-1.14h0a1.15,1.15,0,0,1,1.14,1.15l0,17.21a1.15,1.15,0,0,1-1.15,1.14h0A1.15,1.15,0,0,1,87.33,30.52Z"/><rect class="cls-8" x="103.95" y="4.06" width="21.13" height="36.35" transform="translate(91.92 136.67) rotate(-89.82)"/><path class="cls-7" d="M144.38,25.79a3.74,3.74,0,0,0,2.06-3.46,3.73,3.73,0,0,0-2-3.47l-11.68-7.14,0,10.57,0,10.56Z"/><path class="cls-7" d="M96.34,35.16a1.28,1.28,0,0,1-1.28-1.29l.07-23.36a1.29,1.29,0,0,1,1.29-1.29h0a1.28,1.28,0,0,1,1.28,1.29l-.07,23.37a1.28,1.28,0,0,1-1.29,1.28Z"/><path class="cls-7" d="M119.5,29.68A7.44,7.44,0,1,1,127,22.27,7.44,7.44,0,0,1,119.5,29.68Z"/><rect class="cls-7" x="91.1" y="21.04" width="21.13" height="2.29" transform="translate(79.16 123.79) rotate(-89.82)"/><path class="cls-6" d="M116.77,11.67l-9-9.61a6.63,6.63,0,0,0-4.86-2L89.88,0,99.3,7.29a5.6,5.6,0,0,1,1.77,4.33Z"/><path class="cls-7" d="M87.91,2.31h0A2.31,2.31,0,0,1,90.23,0l13.11,0a7.2,7.2,0,0,1,4.76,2.31Z"/><path class="cls-7" d="M112.57,7.17l-13.48,0,.21.16a4.15,4.15,0,0,1,.68.77l13.46,0Z"/><path class="cls-6" d="M116.7,32.8l-9,9.56a6.63,6.63,0,0,1-4.87,2l-13.05,0,9.46-7.23A5.59,5.59,0,0,0,101,32.75Z"/><path class="cls-7" d="M87.78,42h0a2.31,2.31,0,0,0,2.31,2.32l13.11.05A7.25,7.25,0,0,0,108,42.07Z"/><path class="cls-7" d="M113.38,36.32l-13.46,0a4.4,4.4,0,0,1-.72.79L99,37.2l13.46,0Z"/><path class="cls-9" d="M120.27,28.06a5.86,5.86,0,1,1,5.11-5.45A5.87,5.87,0,0,1,120.27,28.06Z"/><path class="cls-10" d="M123.71,20.33c.06.13.11.27.16.4"/><path class="cls-10" d="M120.82,17.83a4.63,4.63,0,0,1,2.58,1.94"/></g></g></g></svg>